<svg xmlns="http://www.w3.org/2000/svg" xmlns:xlink="http://www.w3.org/1999/xlink" width="80px" height="80px" viewBox="0 0 80 80"><title>Deliver icon 1</title><desc>Created with Sketch.</desc><defs><polygon id="path-1" points="0 0.015243228 51.7766569 0.015243228 51.7766569 51.8006855 0 51.8006855"></polygon></defs><g id="&#x9875;&#x9762;-1" stroke="none" stroke-width="1" fill="none" fill-rule="evenodd"><g id="Deliver" transform="translate(-890.000000, -923.000000)"><g id="&#x7F16;&#x7EC4;-4" transform="translate(659.000000, 773.000000)"><g id="&#x7F16;&#x7EC4;-2" transform="translate(86.000000, 90.000000)"><g id="1"><g id="Deliver-icon-1" transform="translate(145.000000, 60.000000)"><g id="icon/&#x6298;&#x6263;" transform="translate(15.500000, 16.000000)"><g id="&#x7F16;&#x7EC4;"><mask id="mask-2" fill="white"><use xlink:href="#path-1"></use></mask><g id="Clip-2"></g><path d="M51.014135,27.153864 L24.6527209,0.766912536 C24.1663233,0.287179776 23.5113264,0.017354844 22.8282187,0.015243228 L22.5663783,0.015243228 L4.17836016,1.96631042 C3.00067232,2.09749457 2.07116536,3.02700154 1.94017918,4.20475536 L0.01418742,22.5927075 C-0.066779856,23.3615997 0.199481724,24.1266645 0.740583324,24.6790501 L27.1275348,51.0402003 C27.6077295,51.5302272 28.2658278,51.8044733 28.951971,51.8006855 C29.6167342,51.7978085 30.2537163,51.5338565 30.7256625,51.0657376 L50.9971101,30.79429 C51.4922841,30.3192424 51.7735249,29.6637176 51.7766569,28.9775744 C51.7799917,28.2913652 51.5046898,27.6333328 51.014135,27.153864 Z M28.9349461,48.0671769 L3.41824439,22.5589216 L5.22565571,5.25205091 L22.5325924,3.4445736 L48.0407817,28.9613413 L28.9349461,48.0671769 Z" id="Fill-1" fill="#FFFFFF" mask="url(#mask-2)"></path></g><path d="M13.4102793,8.36892576 C10.992413,8.36661852 8.90989772,10.0730022 8.43616987,12.4439511 C7.96263998,14.8148999 9.22980755,17.1904679 11.4631054,18.1174013 C13.6961393,19.0442688 16.2729707,18.2645546 17.6177402,16.255286 C18.9625096,14.2457534 18.7004053,11.5662447 16.991646,9.85543978 C16.0422767,8.90481665 14.753993,8.36998391 13.4102793,8.36892576 Z M14.6013627,14.6277579 C14.1191224,15.1128357 13.3916707,15.2592631 12.7591097,14.9984125 C12.1266148,14.737562 11.7139258,14.1209701 11.7139258,13.4366085 C11.7139258,12.7525109 12.1266148,12.1359191 12.7591097,11.8750685 C13.3916707,11.6142179 14.1191224,11.7606453 14.6013627,12.2457231 C15.2563596,12.9045473 15.2563596,13.9686038 14.6013627,14.6277579 Z M21.7724107,19.4082586 C21.1122667,18.7483786 20.0420733,18.7483786 19.3819294,19.4082586 C18.7220494,20.0684025 18.7220494,21.1386619 19.3819294,21.7988059 L20.5815252,22.9896253 L19.9817603,23.5891923 C19.0300814,24.5398814 18.4954466,25.8297488 18.4954466,27.1749802 C18.4954466,28.5200136 19.0300814,29.809881 19.9817603,30.7605042 C21.9603445,32.7365808 25.1656456,32.7365808 27.1442958,30.7605042 L30.734175,27.170625 C31.1535287,26.7095008 31.7928204,26.5166839 32.3972705,26.6692482 C33.0017206,26.8218784 33.4729409,27.2946164 33.6231956,27.8995944 C33.7737142,28.5045724 33.5785877,29.1432703 33.1159458,29.5609083 L31.3337419,31.3515587 L27.7693341,34.9415038 C27.30821,35.3608576 27.115393,36.0001493 27.2680233,36.6045994 C27.4203236,37.2090495 27.8933256,37.6802038 28.4983035,37.8305245 C29.1032815,37.9810431 29.7420454,37.7859166 30.1596174,37.3232087 L32.5500987,34.9415038 L33.6819909,36.1323233 C34.1150041,36.5654025 34.7460474,36.7344638 35.3376298,36.5759606 C35.9291462,36.4174574 36.3910622,35.9555414 36.5496314,35.363959 C36.7081346,34.7723766 36.5390733,34.1411354 36.1059941,33.7083201 L34.9151086,32.5171707 L35.5064271,31.9176037 C36.8622825,30.6540655 37.4203431,28.7514995 36.9617925,26.9559 C36.5032418,25.1603006 35.1009968,23.7580556 33.3053974,23.299505 C31.5097979,22.8409543 29.6072319,23.3990149 28.3436277,24.7548043 L24.7625249,28.336237 C24.2851017,28.831411 23.5554064,28.9878685 22.9171705,28.7319011 C22.2789345,28.4756697 21.8595808,27.8583519 21.8567433,27.170625 C21.858789,26.7234243 22.0379464,26.2949642 22.3552167,25.9797396 L27.7693341,20.6076565 C28.4294781,19.9477765 28.4294781,18.8775171 27.7693341,18.2173731 C27.1091902,17.5572292 26.0391947,17.5572292 25.3791168,18.2173731 L22.9885695,20.6076565 L21.7724107,19.4082586 Z" id="Fill-3" fill="#FFFFFF"></path></g></g></g></g></g></g></g></svg>