<svg xmlns="http://www.w3.org/2000/svg" xmlns:xlink="http://www.w3.org/1999/xlink" width="80px" height="80px" viewBox="0 0 80 80"><title>Deliver icon 4</title><desc>Created with Sketch.</desc><defs><polygon id="path-1" points="0.00432 0.0500992587 46.9290665 0.0500992587 46.9290665 51.696072 0.00432 51.696072"></polygon></defs><g id="&#x9875;&#x9762;-1" stroke="none" stroke-width="1" fill="none" fill-rule="evenodd"><g id="Deliver" transform="translate(-1280.000000, -1283.000000)"><g id="&#x7F16;&#x7EC4;-4" transform="translate(659.000000, 773.000000)"><g id="&#x7F16;&#x7EC4;-2" transform="translate(86.000000, 90.000000)"><g id="4" transform="translate(390.000000, 360.000000)"><g id="Deliver-icon-4" transform="translate(145.000000, 60.000000)"><g id="icon/&#x8BC4;&#x4EF7;" transform="translate(16.000000, 15.000000)"><mask id="mask-2" fill="white"><use xlink:href="#path-1"></use></mask><g id="Clip-2"></g><path d="M23.408424,51.696072 C22.432464,51.696072 21.639096,50.902632 21.639096,49.926456 L21.639096,38.596032 C21.639096,37.619784 22.432464,36.826632 23.408424,36.826632 C24.384672,36.826632 25.17804,37.619784 25.17804,38.596032 L25.17804,49.926456 C25.17804,50.902632 24.384672,51.696072 23.408424,51.696072 Z M16.837848,49.543128 C16.292232,49.543128 15.755616,49.292496 15.407712,48.817728 C15.236424,48.590496 11.550096,43.830648 1.69704,43.423632 C0.720864,43.382304 -0.036864,42.559632 0.00144,41.583456 C0.039672,40.607208 0.86544,39.85236 1.841616,39.887784 C13.555656,40.371264 18.085536,46.47888 18.271152,46.73844 C18.659232,47.277072 18.713232,47.987496 18.411192,48.578688 C18.109152,49.169592 17.501616,49.541976 16.837848,49.543128 Z M30.091248,49.5431281 C29.42748,49.541976 28.820232,49.169592 28.518192,48.578688 C28.216152,47.987496 28.270152,47.277072 28.657944,46.73844 C28.843848,46.47888 33.373656,40.368456 45.08748,39.887784 C46.066752,39.849264 46.889424,40.607208 46.927656,41.583456 C46.966248,42.559632 46.208232,43.3854 45.232056,43.423632 C35.219808,43.836552 31.563,48.758688 31.527576,48.80592 C31.195656,49.26888 30.661056,49.543344 30.091248,49.5431281 Z" id="Fill-1" fill="#FFFFFF" mask="url(#mask-2)"></path><path d="M22.786344,40.368456 C12.664944,40.368456 7.114752,33.302304 5.277384,30.963744 L5.25096,30.92832 C-0.724248,23.343264 0.738576,10.243224 0.80352,9.688824 C0.806616,9.671112 0.806616,9.6534 0.809424,9.638496 C1.169136,7.205688 2.363616,6.138072 3.30444,5.669208 C5.289192,4.678128 7.495056,5.62788 8.10252,5.928552 L14.006808,8.069688 C14.322384,8.184744 14.679288,8.0874 14.894424,7.830936 L20.087712,1.608264 C20.931192,0.596592 22.163904,0.024552 23.485248,0.050976 C24.800616,0.071784 26.02152,0.676224 26.832384,1.71432 L31.64544,7.85736 C31.860864,8.131536 32.223384,8.234784 32.54796,8.11692 C33.978096,7.589016 35.373096,7.025688 36.818136,6.391728 C39.103848,5.38884 41.698944,4.52484 43.633656,5.737032 C45.391248,6.839784 45.68904,9.095976 45.754056,10.721016 C47.013192,23.402016 44.019864,28.424592 41.115096,32.137344 C38.41056,35.590824 33.606576,40.20336 23.134248,40.368456 L22.786344,40.368456 Z M4.31604,10.12536 C4.251096,10.735632 3.074328,22.446648 8.028864,28.740168 L8.058384,28.775304 C9.630288,30.77784 14.384232,36.826632 22.795056,36.826632 C22.88952,36.826632 22.98096,36.826632 23.075424,36.823536 C31.93452,36.682128 35.88048,33.07536 38.325096,29.949264 C40.923288,26.628552 43.368192,22.428936 42.226848,11.012976 L42.218136,10.900728 C42.150096,9.028224 41.75496,8.73036 41.752152,8.727264 C41.72544,8.712648 41.112,8.361648 38.23956,9.62388 C36.729864,10.28736 35.26704,10.877112 33.771672,11.428632 C31.999248,12.0834 30.023424,11.520072 28.858464,10.033632 L24.04548,3.893688 C23.839056,3.63132 23.570712,3.58992 23.429232,3.587112 C23.29056,3.593016 23.016384,3.61944 22.804056,3.873168 L17.61048,10.09584 C16.445808,11.493648 14.511096,12.015648 12.80052,11.393208 L6.790248,9.21384 C6.704712,9.184536 6.625152,9.146016 6.54552,9.104688 C6.111864,8.877744 5.256864,8.641728 4.879152,8.833536 C4.631616,8.966304 4.422096,9.446976 4.31604,10.12536 Z" id="Fill-3" fill="#FFFFFF" mask="url(#mask-2)"></path></g></g></g></g></g></g></g></svg>