<svg xmlns="http://www.w3.org/2000/svg" xmlns:xlink="http://www.w3.org/1999/xlink" width="80px" height="80px" viewBox="0 0 80 80"><title>Deliver icon 2</title><desc>Created with Sketch.</desc><g id="&#x9875;&#x9762;-1" stroke="none" stroke-width="1" fill="none" fill-rule="evenodd"><g id="Deliver" transform="translate(-1280.000000, -923.000000)" fill="#FFFFFF"><g id="&#x7F16;&#x7EC4;-4" transform="translate(659.000000, 773.000000)"><g id="&#x7F16;&#x7EC4;-2" transform="translate(86.000000, 90.000000)"><g id="2" transform="translate(390.000000, 0.000000)"><g id="Deliver-icon-2" transform="translate(145.000000, 60.000000)"><path d="M58.255686,18 L35.961944,18 C33.3347733,18 31.1920975,20.1575925 31.1920975,22.8031925 L31.1920975,25.0894028 L26.3456535,25.0894028 C24.6112488,25.0894028 22.978725,25.8597923 21.856291,27.2212843 L15.3265073,35.1839834 C14.4590247,36.2370686 14,37.5470758 14,38.9083169 L14,53.0099267 C14,55.7584334 16.2192733,58.0186191 18.9739197,58.0186191 L22.3155648,58.0186191 C22.417508,58.0186191 22.4941055,57.9671971 22.5705162,57.9671971 C23.2847415,60.3046412 25.4018225,62 27.9526448,62 C30.4779345,62 32.5950155,60.3046412 33.3091785,58.0186191 L44.5327093,58.0186191 C44.5579927,58.0186191 44.5835252,57.9929081 44.6346525,57.9929081 C45.3488155,60.3046412 47.4659588,62 50.0167188,62 C52.5420085,62 54.6590895,60.3303522 55.3733148,58.0186191 L58.0260803,58.0186191 C60.7554433,58.0186191 63,55.7841444 63,53.0099267 L63,22.7777323 C63,20.1318815 60.882919,18 58.255686,18 Z M34.6101533,22.7777323 C34.6101533,22.0328029 35.2224353,21.4162404 35.961944,21.4162404 L58.255686,21.4162404 C58.9954438,21.4162404 59.6074767,22.0328029 59.6074767,22.7777323 L59.6074767,40.0385979 L35.961944,40.0385979 C35.2224353,40.0385979 34.6101533,39.4220354 34.6101533,38.6771059 L34.6101533,22.7777323 Z M27.9526448,58.5323376 C26.702735,58.5323376 25.708088,57.5049633 25.708088,56.2720892 C25.708088,55.013504 26.7283298,54.0115899 27.9526448,54.0115899 C29.1769597,54.0115899 30.1974506,55.039215 30.1974506,56.2720892 C30.222734,57.5049633 29.2024922,58.5323376 27.9526448,58.5323376 Z M50.0167188,58.5323376 C48.7668713,58.5323376 47.7719752,57.5049633 47.7719752,56.2720892 C47.7719752,55.013504 48.7924038,54.0115899 50.0167188,54.0115899 C51.2666285,54.0115899 52.2612755,55.039215 52.2612755,56.2720892 C52.2612755,57.5049633 51.2666285,58.5323376 50.0167188,58.5323376 Z M58.0516128,54.5510194 L55.3988473,54.5510194 C54.684622,52.2392862 52.5675411,50.5696385 50.0423136,50.5696385 C47.5170238,50.5696385 45.3999428,52.2649973 44.660185,54.5767304 C44.6346525,54.5767304 44.60912,54.5510194 44.5579927,54.5510194 L33.3347733,54.5510194 C32.620548,52.2392862 30.503467,50.5696385 27.9781773,50.5696385 C25.427355,50.5696385 23.310274,52.2649973 22.5960488,54.6024414 C22.4941055,54.5767304 22.417508,54.5510194 22.3409105,54.5510194 L18.9483872,54.5510194 C18.0811537,54.5510194 17.3925233,53.831801 17.3925233,52.9842157 L17.3925233,38.8826059 C17.3925233,38.3174654 17.5965965,37.7780986 17.953678,37.3415759 L24.483524,29.3788768 C24.9427978,28.813799 25.6314282,28.5056432 26.3456535,28.5056432 L31.21763,28.5056432 L31.21763,38.6771059 C31.21763,41.3228941 33.3603058,43.4804866 35.9874765,43.4804866 L59.6330093,43.4804866 L59.6330093,52.9842157 C59.6074767,53.857512 58.8933138,54.5510194 58.0516128,54.5510194 Z M26.4223133,34.7472098 C27.1620088,35.3380613 27.2894845,36.3911465 26.7283298,37.1617869 L23.9989045,40.7320426 C23.6673555,41.1688161 23.1572658,41.3998389 22.6471138,41.3998389 C22.2900323,41.3998389 21.9074183,41.271472 21.6013395,41.0401984 C20.861644,40.4495977 20.7339192,39.3963244 21.2951362,38.6258721 L24.0244993,35.0553656 C24.6112488,34.310687 25.6825555,34.1820693 26.4223133,34.7472098 Z" id="icon/&#x7269;&#x6D41;"></path></g></g></g></g></g></g></svg>