<?xml version="1.0" standalone="no"?><!DOCTYPE svg PUBLIC "-//W3C//DTD SVG 1.1//EN" "http://www.w3.org/Graphics/SVG/1.1/DTD/svg11.dtd"><svg t="1631966877052" class="icon" viewBox="0 0 1024 1024" version="1.1" xmlns="http://www.w3.org/2000/svg" p-id="4512" xmlns:xlink="http://www.w3.org/1999/xlink" width="200" height="200"><defs><style type="text/css"></style></defs><path d="M512 42.667A729.813 729.813 0 0 1 128 182.4v467.84c37.76 170.667 384 331.093 384 331.093S858.24 820.907 896 650.24V182.4A729.813 729.813 0 0 1 512 42.667z m214.613 370.986l-241.706 241.92a32 32 0 0 1-45.227 0L297.387 513.28a32 32 0 0 1 45.226-45.227l119.68 119.68 219.094-219.306a32 32 0 0 1 45.226 45.226z" p-id="4513" fill="#FE5252"></path></svg>