<svg xmlns="http://www.w3.org/2000/svg" xmlns:xlink="http://www.w3.org/1999/xlink" width="60px" height="52px" viewBox="0 0 60 52"><title>Returns icon1</title><desc>Created with Sketch.</desc><g id="&#x9875;&#x9762;-1" stroke="none" stroke-width="1" fill="none" fill-rule="evenodd"><path d="M1,42.5977897 C0.44771525,42.5977897 0,42.1500744 0,41.5977897 L0,1.59778968 C0,1.04550493 0.44771525,0.597789678 1,0.597789678 L59,0.597789678 C59.5522847,0.597789678 60,1.04550493 60,1.59778968 L60,41.5977897 C60,42.1500744 59.5522847,42.5977897 59,42.5977897 L31.5,42.5977897 L31.5,42.5977897 L31.5,48.5977897 L47,48.5977897 C47.5522847,48.5977897 48,49.0455049 48,49.5977897 L48,50.5977897 C48,51.1500744 47.5522847,51.5977897 47,51.5977897 L13,51.5977897 C12.4477153,51.5977897 12,51.1500744 12,50.5977897 L12,49.5977897 C12,49.0455049 12.4477153,48.5977897 13,48.5977897 L28.5,48.5977897 L28.5,42.5977897 L1,42.5977897 Z M57,3.59778968 L3,3.59778968 L3,39.5977897 L57,39.5977897 L57,3.59778968 Z M27,24.5977897 C27.5522847,24.5977897 28,25.0455049 28,25.5977897 L28,26.5977897 C28,27.1500744 27.5522847,27.5977897 27,27.5977897 L13,27.5977897 C12.4477153,27.5977897 12,27.1500744 12,26.5977897 L12,25.5977897 C12,25.0455049 12.4477153,24.5977897 13,24.5977897 L27,24.5977897 Z M47,13.5977897 C47.5522847,13.5977897 48,14.0455049 48,14.5977897 L48,15.5977897 C48,16.1500744 47.5522847,16.5977897 47,16.5977897 L13,16.5977897 C12.4477153,16.5977897 12,16.1500744 12,15.5977897 L12,14.5977897 C12,14.0455049 12.4477153,13.5977897 13,13.5977897 L47,13.5977897 Z" id="Returns-icon1" fill="#4684E7" fill-rule="nonzero"></path></g></svg>