<svg xmlns="http://www.w3.org/2000/svg" xmlns:xlink="http://www.w3.org/1999/xlink" width="71px" height="53px" viewBox="0 0 71 53"><title>Returns icon2</title><desc>Created with Sketch.</desc><g id="&#x9875;&#x9762;-1" stroke="none" stroke-width="1" fill="none" fill-rule="evenodd"><path d="M42.4027778,0.597789678 C42.9473919,0.597789678 43.3888889,1.03705747 43.3888889,1.57892175 L43.388,10.4087897 L55.7152778,10.4091104 C64.1567968,10.4091104 71,17.2177612 71,25.6166576 L71,42.7864689 C71,43.3283332 70.558503,43.767601 70.0138889,43.767601 L64.04852,43.7677292 L64.0540353,43.7107859 C63.585856,48.6959642 59.368956,52.5977897 54.2361111,52.5977897 C49.1032662,52.5977897 44.8863662,48.6959642 44.4181869,43.7107859 L44.4237023,43.7677292 L44.4237023,43.7677292 L28.54852,43.7677292 L28.5540353,43.7107859 C28.085856,48.6959642 23.868956,52.5977897 18.7361111,52.5977897 C13.6032662,52.5977897 9.38636624,48.6959642 8.91818688,43.7107859 L8.92370227,43.7677292 L8.92370227,43.7677292 L0.986111111,43.767601 C0.441496983,43.767601 0,43.3283332 0,42.7864689 L0,1.57892175 C0,1.03705747 0.441496983,0.597789678 0.986111111,0.597789678 L42.4027778,0.597789678 Z M54.2361111,35.9185444 C50.4238122,35.9185444 47.3333333,38.9934189 47.3333333,42.7864689 C47.3333333,46.5795189 50.4238122,49.6543935 54.2361111,49.6543935 C58.04841,49.6543935 61.1388889,46.5795189 61.1388889,42.7864689 C61.1388889,38.9934189 58.04841,35.9185444 54.2361111,35.9185444 Z M18.7361111,35.9185444 C14.9238122,35.9185444 11.8333333,38.9934189 11.8333333,42.7864689 C11.8333333,46.5795189 14.9238122,49.6543935 18.7361111,49.6543935 C22.54841,49.6543935 25.6388889,46.5795189 25.6388889,42.7864689 C25.6388889,38.9934189 22.54841,35.9185444 18.7361111,35.9185444 Z M40.4305556,3.5411859 L2.95833333,3.5411859 L2.95833333,40.8242048 L9.07223404,40.824322 L9.11007892,40.647257 C10.0912386,36.2573531 14.0284297,32.9751482 18.7361111,32.9751482 C23.4437926,32.9751482 27.3809836,36.2573531 28.3621433,40.647257 L28.3999882,40.824322 L28.3999882,40.824322 L40.4305556,40.8242048 L40.4305556,3.5411859 Z M68.041,26.1067897 L43.388,26.1067897 L43.3888889,40.8242048 L44.572234,40.824322 L44.6100789,40.647257 C45.5912386,36.2573531 49.5284297,32.9751482 54.2361111,32.9751482 C58.9437926,32.9751482 62.8809836,36.2573531 63.8621433,40.647257 L63.8999882,40.824322 L63.8999882,40.824322 L68.0416667,40.8242048 L68.041,26.1067897 Z M55.7152778,13.3525067 L43.3888889,13.3525067 L43.388,23.1637897 L67.7951263,23.1639844 C66.6725554,17.661339 61.8471333,13.4964886 56.0192236,13.3561622 L55.7152778,13.3525067 Z" id="Returns-icon2" fill="#4684E7" fill-rule="nonzero"></path></g></svg>