<svg xmlns="http://www.w3.org/2000/svg" xmlns:xlink="http://www.w3.org/1999/xlink" width="59px" height="59px" viewBox="0 0 59 59"><title>Returns icon4</title><desc>Created with Sketch.</desc><g id="&#x9875;&#x9762;-1" stroke="none" stroke-width="1" fill="none" fill-rule="evenodd"><path d="M17.5452685,0.134141571 L39.133,12.597 L54,12.5977897 C56.7614237,12.5977897 59,14.8363659 59,17.5977897 L59,53.5977897 C59,56.3592134 56.7614237,58.5977897 54,58.5977897 L5,58.5977897 C2.23857625,58.5977897 0,56.3592134 0,53.5977897 L0,17.5977897 C0,14.8363659 2.23857625,12.5977897 5,12.5977897 L9.195,12.597 L16.1792431,0.500166975 C16.4553855,0.0218743518 17.0669759,-0.142000803 17.5452685,0.134141571 Z M54,15.5977897 L5,15.5977897 C3.9456382,15.5977897 3.08183488,16.4136675 3.00548574,17.4485273 L3,17.5977897 L3,53.5977897 C3,54.6521515 3.81587779,55.5159548 4.85073766,55.5923039 L5,55.5977897 L54,55.5977897 C55.0543618,55.5977897 55.9181651,54.7819119 55.9945143,53.747052 L56,53.5977897 L56,46.597 L44,46.5977897 C43.4477153,46.5977897 43,46.1500744 43,45.5977897 L43,25.5977897 C43,25.0455049 43.4477153,24.5977897 44,24.5977897 L56,24.597 L56,17.5977897 C56,16.5434279 55.1841222,15.6796246 54.1492623,15.6032754 L54,15.5977897 Z M34.7425032,25.9375259 L34.8686908,26.0415268 L38.4032049,29.264833 C38.7874011,29.6149712 39,30.0836759 39,30.5806023 C39,31.022262 38.8320206,31.4416699 38.5248586,31.7754985 L38.4032049,31.896549 L34.8324899,35.1529284 C34.5106397,35.4510606 34.0851174,35.5977897 33.6594005,35.5977897 C33.2338783,35.5977897 32.8084209,35.4510606 32.4865707,35.1575433 C31.8759722,34.6006968 31.8400546,33.7169223 32.378818,33.1216137 L32.4865707,33.013524 L33.94,31.6877897 L21.6965241,31.6886713 C18.6429568,31.6886713 16.1624005,34.113129 16.1624005,37.0976388 C16.1624005,40.0096501 18.5234297,42.3883085 21.4741426,42.5026083 L21.6965241,42.506908 L30.9714946,42.506908 C31.8461131,42.506908 32.5527875,43.1976008 32.5527875,44.0524998 C32.5527875,44.8598474 31.9224514,45.5205655 31.1156169,45.5914868 L30.9714946,45.5977897 L21.6965241,45.5977897 C16.8985377,45.5977897 13,41.7871773 13,37.0976388 C13,32.4982841 16.7629438,28.736816 21.4359921,28.6015558 L21.6965241,28.5977897 L32.971,28.5977897 L32.5177112,28.1855461 C31.8689503,27.5938966 31.8689503,26.6331762 32.5177112,26.0415268 C33.1259245,25.4868554 34.0898285,25.4521884 34.7425032,25.9375259 Z M56,27.5977897 L46,27.5977897 L46,43.5977897 L56,43.5977897 L56,27.5977897 Z M51,33.5977897 C52.1045695,33.5977897 53,34.4932202 53,35.5977897 C53,36.7023592 52.1045695,37.5977897 51,37.5977897 C49.8954305,37.5977897 49,36.7023592 49,35.5977897 C49,34.4932202 49.8954305,33.5977897 51,33.5977897 Z M17.777,3.73178968 L12.659,12.5967897 L33.132,12.5967897 L17.777,3.73178968 Z" id="Returns-icon4" fill="#4684E7"></path></g></svg>