<svg xmlns="http://www.w3.org/2000/svg" xmlns:xlink="http://www.w3.org/1999/xlink" width="60px" height="52px" viewBox="0 0 60 52"><title>Returns icon3</title><desc>Created with Sketch.</desc><g id="&#x9875;&#x9762;-1" stroke="none" stroke-width="1" fill="none" fill-rule="evenodd"><path d="M59,0.597789678 C59.5522847,0.597789678 60,1.04550493 60,1.59778968 L60,41.5977897 C60,42.1500744 59.5522847,42.5977897 59,42.5977897 L31.5,42.5977897 L31.5,48.5977897 L47,48.5977897 C47.5522847,48.5977897 48,49.0455049 48,49.5977897 L48,50.5977897 C48,51.1500744 47.5522847,51.5977897 47,51.5977897 L13,51.5977897 C12.4477153,51.5977897 12,51.1500744 12,50.5977897 L12,49.5977897 C12,49.0455049 12.4477153,48.5977897 13,48.5977897 L28.5,48.5977897 L28.5,42.5977897 L1,42.5977897 C0.44771525,42.5977897 0,42.1500744 0,41.5977897 L0,1.59778968 C0,1.04550493 0.44771525,0.597789678 1,0.597789678 L59,0.597789678 Z M57,3.59778968 L3,3.59778968 L3,39.5977897 L57,39.5977897 L57,3.59778968 Z M40,10.5977897 C45.5228475,10.5977897 50,15.0749422 50,20.5977897 C50,23.0074899 49.1476817,25.2181205 47.7280672,26.9446594 L52.6991163,31.9153528 C53.0896406,32.3058771 53.0896406,32.939042 52.6991163,33.3295663 L51.9920095,34.0366731 C51.6014853,34.4271974 50.9683203,34.4271974 50.577796,34.0366731 L45.4944766,28.9544084 C43.9176934,29.9932413 42.0294466,30.5977897 40,30.5977897 C34.4771525,30.5977897 30,26.1206372 30,20.5977897 C30,15.0749422 34.4771525,10.5977897 40,10.5977897 Z M24.5,24.5977897 C25.0522847,24.5977897 25.5,25.0455049 25.5,25.5977897 L25.5,26.5977897 C25.5,27.1500744 25.0522847,27.5977897 24.5,27.5977897 L10.5,27.5977897 C9.94771525,27.5977897 9.5,27.1500744 9.5,26.5977897 L9.5,25.5977897 C9.5,25.0455049 9.94771525,24.5977897 10.5,24.5977897 L24.5,24.5977897 Z M40,13.5977897 C36.1340068,13.5977897 33,16.7317964 33,20.5977897 C33,24.4637829 36.1340068,27.5977897 40,27.5977897 C43.8659932,27.5977897 47,24.4637829 47,20.5977897 C47,16.7317964 43.8659932,13.5977897 40,13.5977897 Z M27.5,13.5977897 C28.0522847,13.5977897 28.5,14.0455049 28.5,14.5977897 L28.5,15.5977897 C28.5,16.1500744 28.0522847,16.5977897 27.5,16.5977897 L10.5,16.5977897 C9.94771525,16.5977897 9.5,16.1500744 9.5,15.5977897 L9.5,14.5977897 C9.5,14.0455049 9.94771525,13.5977897 10.5,13.5977897 L27.5,13.5977897 Z" id="Returns-icon3" fill="#4684E7" fill-rule="nonzero"></path></g></svg>