<svg xmlns="http://www.w3.org/2000/svg" xmlns:xlink="http://www.w3.org/1999/xlink" width="80px" height="80px" viewBox="0 0 80 80"><title>Deliver icon 3</title><desc>Created with Sketch.</desc><defs><polygon id="path-1" points="0.004104 0.0303696 47.7544176 0.0303696 47.7544176 47.8799316 0.004104 47.8799316"></polygon></defs><g id="&#x9875;&#x9762;-1" stroke="none" stroke-width="1" fill="none" fill-rule="evenodd"><g id="Deliver" transform="translate(-890.000000, -1283.000000)"><g id="&#x7F16;&#x7EC4;-4" transform="translate(659.000000, 773.000000)"><g id="&#x7F16;&#x7EC4;-2" transform="translate(86.000000, 90.000000)"><g id="3" transform="translate(0.000000, 360.000000)"><g id="Deliver-icon-3" transform="translate(145.000000, 60.000000)"><g id="daifahuo" transform="translate(16.000000, 16.000000)"><g id="&#x7F16;&#x7EC4;"><mask id="mask-2" fill="white"><use xlink:href="#path-1"></use></mask><g id="Clip-2"></g><path d="M47.6031852,13.8006576 C47.5722,13.6352664 47.5190532,13.4755524 47.4434028,13.3187112 L42.899112,4.0956552 C41.6636028,1.5881112 39.1587264,0.0303696 36.365544,0.0303696 L11.4588468,0.0303696 C8.6822856,0.0303696 6.1861644,1.5741576 4.9448412,4.0563936 L0.3192912,13.3074936 C0.2409732,13.4642664 0.1878264,13.6267164 0.1541736,13.7921076 C0.056088,14.0219316 0,14.2711812 0,14.5373256 L0,40.5956052 C0,44.6132844 3.2666472,47.8799316 7.2843264,47.8799316 L40.4700912,47.8799316 C44.4874968,47.8799316 47.7544176,44.6132844 47.7544176,40.5956052 L47.7544176,14.5373256 C47.7544176,14.2741224 47.7012708,14.0275404 47.6031852,13.8006576 Z M7.9512264,5.56092 C8.620794,4.2244524 9.965538,3.3923664 11.4588468,3.3923664 L36.365544,3.3923664 C37.8700704,3.3923664 39.2204232,4.2300612 39.884382,5.580414 L43.3725768,12.6603612 L4.4014032,12.6603612 L7.9512264,5.56092 Z M44.3924208,40.5929376 C44.3924208,42.755814 42.6329676,44.5151988 40.4700912,44.5151988 L7.2843264,44.5151988 C5.12145,44.5151988 3.3619968,42.755814 3.3619968,40.5929376 L3.3619968,16.022358 L44.3924208,16.022358 L44.3924208,40.5929376 Z" id="Fill-1" fill="#FFFFFF" mask="url(#mask-2)"></path></g><path d="M34.1831736,31.1625612 L11.988468,31.1625612 C11.0610324,31.1625612 10.3072644,30.4087932 10.3072644,29.4813576 C10.3072644,28.554264 11.0610324,27.800496 11.988468,27.800496 L34.1858412,27.800496 C35.1132768,27.800496 35.8669764,28.554264 35.8669764,29.4813576 C35.8669764,30.4087932 35.1132768,31.1625612 34.1831736,31.1625612 Z" id="Fill-3" fill="#FFFFFF"></path><path d="M29.6332056,37.9424396 C29.241,37.9424396 28.8458532,37.805364 28.526562,37.5250608 C27.8291556,36.912402 27.7589088,35.8511076 28.3697208,35.1519228 L33.3482148,29.4730812 L28.3611708,23.7071664 C27.777582,23.0033988 27.8639028,21.9619404 28.5551532,21.363714 C29.2466088,20.765214 30.2894352,20.8293048 30.9023676,21.5079696 L36.8446176,28.3803228 C37.3942116,29.0148696 37.3907232,29.9577636 36.8363412,30.5880696 L30.8938176,37.3682196 C30.5769204,37.7334756 30.116862,37.94319 29.6332056,37.9424396 Z" id="Fill-4" fill="#FFFFFF"></path></g></g></g></g></g></g></g></svg>